<?xml version="1.0" standalone="no"?>
<!DOCTYPE svg PUBLIC "-//W3C//DTD SVG 20010904//EN"
 "http://www.w3.org/TR/2001/REC-SVG-20010904/DTD/svg10.dtd">
<svg version="1.0" xmlns="http://www.w3.org/2000/svg"
 width="225.000000pt" height="225.000000pt" viewBox="0 0 225.000000 225.000000"
 preserveAspectRatio="xMidYMid meet">
<metadata>
Created by potrace 1.11, written by Peter Selinger 2001-2013
</metadata>
<g transform="translate(0.000000,225.000000) scale(0.100000,-0.100000)"
fill="#000000" stroke="none">
<path d="M0 1125 l0 -1125 1125 0 1125 0 0 1125 0 1125 -1125 0 -1125 0 0
-1125z m1460 627 c-13 -11 -23 -33 -27 -60 -10 -76 31 -93 106 -42 50 34 60
36 87 15 10 -8 27 -15 36 -15 15 0 14 -5 -8 -37 -14 -21 -28 -51 -31 -67 l-6
-28 -24 31 c-31 39 -57 39 -94 0 -33 -36 -38 -55 -10 -39 32 17 66 12 90 -13
19 -21 20 -25 6 -37 -8 -7 -15 -22 -15 -34 0 -19 -2 -19 -23 7 -17 22 -29 28
-52 25 -26 -3 -30 -7 -33 -39 -4 -45 31 -90 87 -112 40 -16 91 -68 91 -93 0
-25 24 -15 42 17 14 24 24 30 44 27 36 -4 69 -48 59 -79 l-8 -24 -8 23 c-9 23
-39 31 -39 11 0 -7 10 -27 21 -46 18 -28 20 -39 10 -59 -12 -28 -42 -31 -65
-8 -20 19 -20 28 -2 21 8 -3 22 0 31 7 14 10 15 16 6 34 -15 28 -24 28 -36 0
-6 -13 -20 -24 -32 -26 -12 -2 -41 -23 -66 -47 -32 -33 -54 -46 -85 -51 -34
-5 -40 -9 -31 -20 23 -28 49 -26 79 6 35 37 64 37 93 -2 15 -19 18 -33 12 -55
l-7 -28 -10 28 c-6 17 -17 27 -29 27 -32 0 -34 -28 -5 -59 30 -32 32 -47 9
-73 -20 -22 -51 -23 -81 -2 -12 8 -26 13 -31 10 -13 -8 -61 33 -61 52 0 10
-21 28 -53 44 -75 40 -162 111 -194 160 -26 38 -28 52 -33 162 -3 68 -11 131
-18 143 -18 33 -68 56 -103 48 -65 -15 -77 -90 -29 -185 63 -124 45 -199 -65
-275 -33 -23 -61 -49 -63 -58 -6 -30 41 -30 112 -2 76 30 111 28 128 -10 13
-29 6 -50 -22 -65 -19 -10 -20 -10 -9 8 13 20 7 52 -10 52 -5 0 -7 -9 -4 -20
6 -22 -21 -60 -42 -60 -7 0 -18 6 -24 14 -9 11 -8 14 6 12 12 0 19 7 21 22 5
32 -23 28 -50 -8 -22 -30 -22 -30 -125 -30 -85 0 -109 4 -145 22 -24 12 -45
23 -47 25 -2 1 3 11 12 21 16 18 14 20 -35 43 -104 49 -186 161 -195 269 -8
83 3 125 43 170 61 67 137 63 178 -10 l19 -35 -33 30 c-22 21 -34 26 -37 17
-4 -10 -8 -10 -21 0 -14 11 -15 10 -9 -6 6 -14 4 -17 -9 -12 -12 4 -15 2 -10
-9 3 -9 0 -15 -11 -15 -13 0 -13 -3 -3 -15 10 -12 9 -15 -5 -15 -17 0 -17 -1
0 -20 17 -19 17 -20 -1 -20 -18 -1 -18 -1 1 -16 14 -11 16 -18 8 -21 -21 -8
-15 -23 9 -23 20 0 20 -1 5 -18 -24 -26 -21 -33 9 -26 l26 7 -17 -27 -18 -27
28 7 c25 6 26 5 16 -15 -12 -21 1 -31 14 -11 3 6 13 10 21 10 12 0 13 -4 4
-21 -7 -11 -9 -23 -6 -27 3 -3 6 0 6 6 0 6 9 16 20 22 19 10 20 9 14 -16 l-7
-27 24 24 24 24 6 -30 c4 -17 7 -23 8 -14 0 8 6 20 13 27 10 10 15 7 25 -10
12 -23 12 -23 19 10 7 37 12 39 30 15 12 -16 13 -14 7 17 -6 34 -6 35 14 18
34 -30 36 -20 4 19 -37 45 -39 57 -8 47 21 -6 21 -5 -4 22 -45 49 -70 117 -31
81 30 -28 33 -19 7 19 -16 23 -25 50 -25 73 l1 36 15 -28 c9 -16 18 -27 21
-24 2 3 0 14 -6 25 -14 25 -14 82 -1 102 7 12 10 8 11 -15 0 -16 3 -23 5 -15
25 75 40 103 66 121 l30 22 -12 -22 c-6 -13 -9 -25 -7 -28 3 -2 10 5 16 16 15
27 62 51 98 50 l28 0 -22 -16 c-33 -23 -28 -36 7 -18 37 19 100 19 126 0 18
-14 18 -14 -8 -15 -15 0 -30 -4 -33 -10 -4 -6 10 -10 34 -10 49 0 69 -7 81
-31 9 -17 8 -17 -20 -7 -44 15 -49 2 -7 -16 20 -8 40 -23 46 -34 16 -30 13
-37 -7 -19 -13 12 -8 -4 15 -52 17 -38 38 -71 46 -74 9 -3 5 10 -10 41 -13 25
-23 54 -23 65 0 17 2 18 17 6 11 -9 8 -2 -6 20 -31 43 -39 117 -17 159 24 47
31 45 31 -9 0 -34 5 -53 19 -66 18 -17 18 -17 6 6 -17 33 -8 116 16 143 26 28
75 58 98 58 17 0 16 -2 -4 -18z m330 -884 c1 -7 1 -77 0 -155 -1 -160 5 -213
26 -213 8 0 14 -4 14 -10 0 -6 -28 -10 -65 -10 -37 0 -65 4 -65 10 0 6 7 10
15 10 13 0 15 26 15 175 l0 175 -25 6 c-39 10 -19 24 36 24 32 0 49 -4 49 -12z
m-1078 -51 c137 -80 109 -276 -46 -322 -55 -17 -236 -21 -236 -6 0 5 10 11 23
13 22 3 22 6 25 160 l3 157 -26 7 c-14 3 -25 11 -25 16 0 7 42 9 118 6 106 -4
123 -7 164 -31z m198 -102 c0 -14 3 -14 24 1 46 30 106 -3 80 -43 -16 -25 -47
-22 -59 5 -11 26 -18 27 -34 8 -8 -9 -11 -45 -9 -98 3 -77 4 -83 26 -86 12 -2
22 -8 22 -13 0 -5 -34 -9 -75 -9 -71 0 -99 11 -55 23 18 5 20 14 20 95 0 79
-3 93 -20 105 -27 19 -15 27 37 27 32 0 43 -4 43 -15z m294 -7 c15 -13 29 -38
32 -55 l7 -33 -77 0 -76 0 0 -33 c0 -18 7 -43 16 -55 21 -30 79 -30 111 0 13
12 23 17 23 11 0 -6 -14 -23 -31 -37 -44 -37 -107 -36 -150 2 -55 49 -51 156
9 202 35 28 103 27 136 -2z m156 13 c0 -5 -5 -11 -12 -13 -9 -3 -6 -14 8 -37
l21 -33 22 27 c25 33 27 45 6 45 -8 0 -15 5 -15 10 0 6 20 10 45 10 25 0 45
-2 45 -5 0 -3 -16 -20 -35 -37 -59 -51 -60 -61 -20 -123 19 -31 42 -58 50 -61
34 -13 11 -24 -50 -24 -37 0 -65 4 -65 10 0 6 7 10 15 10 20 0 19 6 -7 48
l-21 35 -24 -29 c-28 -35 -28 -43 -5 -60 15 -12 10 -13 -35 -14 -29 0 -53 5
-53 10 0 6 6 10 14 10 8 0 32 21 54 47 l40 48 -40 57 c-21 32 -43 58 -48 58
-6 0 -10 5 -10 10 0 6 27 10 60 10 33 0 60 -4 60 -9z m304 -13 c15 -13 29 -38
32 -55 l7 -33 -78 0 -78 0 6 -40 c3 -23 11 -47 17 -55 19 -23 80 -19 107 7 13
12 23 17 23 11 0 -6 -14 -23 -31 -37 -56 -48 -140 -31 -174 34 -30 58 -12 140
37 174 34 24 102 21 132 -6z"/>
<path d="M1582 1638 c7 -19 38 -22 38 -4 0 10 -9 16 -21 16 -12 0 -19 -5 -17
-12z"/>
<path d="M1420 1597 c0 -7 5 -19 10 -27 8 -13 11 -13 24 0 14 13 12 16 -9 27
-19 8 -25 8 -25 0z"/>
<path d="M1320 1250 c0 -41 28 -89 55 -96 32 -8 45 7 45 53 0 33 -14 51 -25
33 -10 -16 -33 -12 -55 10 l-20 20 0 -20z"/>
<path d="M1640 1144 c0 -8 5 -12 10 -9 6 4 8 11 5 16 -9 14 -15 11 -15 -7z"/>
<path d="M1477 899 c7 -7 15 -10 18 -7 3 3 -2 9 -12 12 -14 6 -15 5 -6 -5z"/>
<path d="M1561 891 c-16 -28 -14 -31 15 -31 20 0 25 4 22 22 -4 29 -24 34 -37
9z"/>
<path d="M550 681 c0 -172 6 -187 68 -177 48 7 78 39 92 97 29 121 -31 228
-127 229 l-33 0 0 -149z"/>
<path d="M1106 704 c-9 -8 -16 -26 -16 -40 0 -21 4 -24 40 -24 34 0 40 3 40
21 0 28 -18 59 -35 59 -7 0 -21 -7 -29 -16z"/>
<path d="M1566 698 c-28 -40 -21 -58 24 -58 34 0 40 3 40 21 0 28 -18 59 -35
59 -8 0 -21 -10 -29 -22z"/>
</g>
</svg>
